<svg xmlns="http://www.w3.org/2000/svg" viewBox="0 0 96 96" role="img" aria-labelledby="title desc">
  <title id="title">Enzo puppy icon</title>
  <desc id="desc">A friendly white puppy outlined in dark ink on lavender.</desc>
  <rect x="2" y="2" width="92" height="92" rx="24" fill="#f0d7ff" stroke="#1a1a1a" stroke-width="4"/>
  <path d="M30 44c-8-18 4-30 17-19 14-10 28 1 20 20 13 6 16 25 5 34H29c-12-10-9-29 1-35Z" fill="#fff" stroke="#1a1a1a" stroke-width="4" stroke-linejoin="round"/>
  <path d="M34 30c-13-10-20 3-10 17m38-17c13-11 21 2 11 17" fill="#fff" stroke="#1a1a1a" stroke-width="4" stroke-linecap="round"/>
  <circle cx="39" cy="45" r="3" fill="#1a1a1a"/><circle cx="56" cy="45" r="3" fill="#1a1a1a"/>
  <path d="M44 53c4-3 9 0 7 4-2 4-7 5-9 1-2-2 0-4 2-5Z" fill="#1a1a1a"/>
  <path d="M35 64c9 5 20 5 29 0" fill="none" stroke="#1a1a1a" stroke-width="4" stroke-linecap="round"/>
  <circle cx="50" cy="69" r="5" fill="#ffa946" stroke="#1a1a1a" stroke-width="3"/>
</svg>
