<svg xmlns="http://www.w3.org/2000/svg" viewBox="0 0 360 112" role="img" aria-labelledby="title desc">
  <title id="title">Enzo</title>
  <desc id="desc">Enzo wordmark with an original white puppy, asymmetric ears, and a diamond tag.</desc>
  <rect x="2" y="2" width="356" height="108" rx="32" fill="#ffffeb" stroke="#1a1a1a" stroke-width="4"/>
  <rect x="18" y="18" width="76" height="76" rx="22" fill="#f0d7ff" stroke="#1a1a1a" stroke-width="3"/>
  <path d="M37 49 40 28c1-4 5-5 8-1l9 17" fill="#fff" stroke="#1a1a1a" stroke-width="3" stroke-linejoin="round"/>
  <path d="M64 42c11-8 19 1 13 11-4 6-8 8-14 9" fill="#fff" stroke="#1a1a1a" stroke-width="3" stroke-linecap="round"/>
  <path d="M37 42c10-8 26-7 34 4 9 13 5 31-10 38H42c-16-7-18-28-5-42Z" fill="#fff" stroke="#1a1a1a" stroke-width="3" stroke-linejoin="round"/>
  <path d="M34 50c6-8 15-8 20-2 4 7 1 16-7 19-8 3-16-2-16-9 0-3 1-6 3-8Z" fill="#f0d7ff"/>
  <circle cx="45" cy="55" r="2.5" fill="#1a1a1a"/><circle cx="59" cy="54" r="2.5" fill="#1a1a1a"/>
  <path d="M49 62c4-2 8 0 7 4-2 3-6 4-9 1-1-2 0-4 2-5Z" fill="#1a1a1a"/>
  <path d="m53 70 5 4-5 6-5-6 5-4Z" fill="#ffa946" stroke="#1a1a1a" stroke-width="2"/>
  <text x="116" y="73" font-family="Georgia,serif" font-size="58" letter-spacing="-2" fill="#1a1a1a">Enzo</text>
</svg>
