<svg xmlns="http://www.w3.org/2000/svg" viewBox="0 0 360 112" role="img" aria-labelledby="title desc">
  <title id="title">Enzo</title>
  <desc id="desc">Enzo wordmark with a friendly white puppy.</desc>
  <rect x="2" y="2" width="356" height="108" rx="32" fill="#ffffeb" stroke="#1a1a1a" stroke-width="4"/>
  <rect x="18" y="18" width="76" height="76" rx="22" fill="#f0d7ff" stroke="#1a1a1a" stroke-width="3"/>
  <path d="M39 49c-6-15 4-24 14-15 12-9 23 1 16 16 11 5 13 20 4 28H37c-10-8-8-24 2-29Z" fill="#fff" stroke="#1a1a1a" stroke-width="3" stroke-linejoin="round"/>
  <path d="M42 38c-10-8-16 3-8 14m31-14c11-9 17 2 9 14" fill="#fff" stroke="#1a1a1a" stroke-width="3" stroke-linecap="round"/>
  <circle cx="49" cy="51" r="2.5" fill="#1a1a1a"/><circle cx="62" cy="51" r="2.5" fill="#1a1a1a"/>
  <path d="M53 58c4-2 7 0 6 3-1 3-5 4-7 1-1-2 0-3 1-4Z" fill="#1a1a1a"/>
  <circle cx="57" cy="70" r="4" fill="#ffa946" stroke="#1a1a1a" stroke-width="2"/>
  <text x="116" y="73" font-family="Georgia,serif" font-size="58" letter-spacing="-2" fill="#1a1a1a">Enzo</text>
</svg>
