<svg xmlns="http://www.w3.org/2000/svg" viewBox="0 0 96 96" role="img" aria-labelledby="title desc">
  <title id="title">Enzo puppy icon</title>
  <desc id="desc">An original white puppy with one upright ear, one folded ear, a lavender eye patch, and a diamond tag.</desc>
  <rect x="2" y="2" width="92" height="92" rx="24" fill="#ffffeb" stroke="#1a1a1a" stroke-width="4"/>
  <path d="M27 41 31 14c1-5 7-6 10-2l11 23" fill="#fff" stroke="#1a1a1a" stroke-width="4" stroke-linejoin="round"/>
  <path d="M60 31c15-10 25 2 16 16-4 6-10 10-18 11" fill="#fff" stroke="#1a1a1a" stroke-width="4" stroke-linecap="round"/>
  <path d="M27 33c13-11 34-9 44 5 12 17 6 42-13 50H34C13 80 11 50 27 33Z" fill="#fff" stroke="#1a1a1a" stroke-width="4" stroke-linejoin="round"/>
  <path d="M24 44c7-10 20-11 26-3 6 9 1 22-9 26-11 4-22-3-22-13 0-4 2-8 5-10Z" fill="#f0d7ff"/>
  <circle cx="38" cy="51" r="3" fill="#1a1a1a"/><circle cx="57" cy="49" r="3" fill="#1a1a1a"/>
  <path d="M43 59c5-3 10 0 8 5-2 4-8 5-11 1-2-3 0-5 3-6Z" fill="#1a1a1a"/>
  <path d="m49 70 7 6-7 8-7-8 7-6Z" fill="#ffa946" stroke="#1a1a1a" stroke-width="3" stroke-linejoin="round"/>
</svg>
